<svg width="186" height="26" viewBox="0 0 186 26" fill="none" xmlns="http://www.w3.org/2000/svg">
<g id="Group 15">
<g id="Group 14">
<rect id="Rectangle" width="115" height="4" rx="2" fill="#ADB5BE"/>
<rect id="Rectangle_2" x="121" width="22" height="4" rx="2" fill="#ADB5BE"/>
<rect id="Rectangle_3" x="149" width="22" height="4" rx="2" fill="#ADB5BE"/>
<rect id="Rectangle_4" x="177" width="9" height="4" rx="2" fill="#ADB5BE"/>
</g>
<g id="Group 14 Copy">
<rect id="Rectangle_5" width="115" height="4" rx="2" transform="matrix(-1 0 0 1 186 22)" fill="#ADB5BE"/>
<rect id="Rectangle_6" width="22" height="4" rx="2" transform="matrix(-1 0 0 1 65 22)" fill="#ADB5BE"/>
<rect id="Rectangle_7" width="22" height="4" rx="2" transform="matrix(-1 0 0 1 37 22)" fill="#ADB5BE"/>
<rect id="Rectangle_8" width="9" height="4" rx="2" transform="matrix(-1 0 0 1 9 22)" fill="#ADB5BE"/>
</g>
<g id="Group 14_2">
<rect id="Rectangle_9" x="42" y="11" width="60" height="4" rx="2" fill="#ADB5BE"/>
<rect id="Rectangle_10" x="14" y="11" width="22" height="4" rx="2" fill="#ADB5BE"/>
<rect id="Rectangle_11" x="108" y="11" width="46" height="4" rx="2" fill="#ADB5BE"/>
<rect id="Rectangle_12" x="160" y="11" width="9" height="4" rx="2" fill="#ADB5BE"/>
</g>
</g>
</svg>
